<?xml version="1.0" encoding="utf-8"?>
<!-- Generator: Adobe Illustrator 26.0.1, SVG Export Plug-In . SVG Version: 6.00 Build 0)  -->
<svg version="1.1" xmlns="http://www.w3.org/2000/svg" xmlns:xlink="http://www.w3.org/1999/xlink" x="0px" y="0px"
	 viewBox="0 0 58.8 58.8" style="enable-background:new 0 0 58.8 58.8;" xml:space="preserve">
<style type="text/css">
	.st0{fill:#5E5E5E;}
</style>
<g id="Capa_1">
	<g>
		<path class="st0" d="M52.5,23.9l-40-23.1c-1.9-1.1-4.4-1.1-6.3,0C4.3,1.9,3.1,4,3.1,6.3v46.2c0,2.2,1.2,4.3,3.1,5.4
			c1,0.6,2,0.8,3.1,0.8c1.1,0,2.2-0.3,3.1-0.8l40-23.1c1.9-1.1,3.1-3.2,3.1-5.4C55.7,27.1,54.5,25,52.5,23.9z M38,26.5l-18.1,1.6
			c-0.1,0-10.6,24.7-10.7,24.6c-0.1,0,7.3-7.4,20.2-7.8l21.2-18.3C37.7,26.8,9.1,6.1,9.2,6c0,0-0.1,5.8,0,5.8c0.1,0-0.7,3-0.6,3
			l29.3,9.6c0.1,0.1,2.3,3.3,2.3,3.4C40.2,28,38.1,26.4,38,26.5z"/>
	</g>
	<g id="Layer_2">
	</g>
</g>
<g id="Layer_3">
</g>
</svg>
